# xmcd CD database file
#
# Track frame offsets:
#	150
#	10631
#	33605
#	50758
#	68533
#	84073
#	112503
#	133643
#	146062
#	163521
#	177874
#	196503
#
# Disc length: 2848 seconds
#
# Revision: 0
# Processed by: cddbd v1.5.1PL2 Copyright (c) Steve Scherf et al.
# Submitted via: CDex 1.51
#
DISCID=8a0b1e0c
DTITLE=Armand and Angelina - Follow Your Dreams
DYEAR=2003
DGENRE=New Age
TTITLE0=Love is a Boomerang
TTITLE1=The One Love
TTITLE2=Let Down Your Guard
TTITLE3=Ave Maria
TTITLE4=Into the Heart of Me
TTITLE5=Reiki Heart Song
TTITLE6=Ode to Gratitude
TTITLE7=Gypsy Lady
TTITLE8=Peace in Every Moment
TTITLE9=Disney Freak
TTITLE10=Coyote Spirit
TTITLE11=Follow Your Dreams
EXTD=YEAR: 2003
EXTT0=
EXTT1=
EXTT2=
EXTT3=
EXTT4=
EXTT5=
EXTT6=
EXTT7=
EXTT8=
EXTT9=
EXTT10=
EXTT11=
PLAYORDER=
